<svg xmlns="http://www.w3.org/2000/svg" xmlns:xlink="http://www.w3.org/1999/xlink" width="1080" zoomAndPan="magnify" viewBox="0 0 810 1439.999935" height="1920" preserveAspectRatio="xMidYMid meet" version="1.0"><defs><clipPath id="2706cb35b3"><path d="M 80.5 391 L 727 391 L 727 1048 L 80.5 1048 Z M 80.5 391 " clip-rule="nonzero"/></clipPath></defs><path fill="#CD9F89" d="M 462.722656 764.019531 C 450.441406 763.382812 440.074219 772.953125 439.433594 785.234375 C 438.796875 797.515625 448.367188 807.882812 460.648438 808.519531 C 472.929688 809.15625 483.296875 799.589844 483.933594 787.304688 C 484.414062 775.023438 475.003906 764.65625 462.722656 764.019531 Z M 462.722656 764.019531 " fill-opacity="1" fill-rule="nonzero"/><path fill="#CD9F89" d="M 472.929688 668 C 485.210938 667.203125 494.621094 656.675781 493.984375 644.394531 C 493.347656 632.113281 482.660156 622.699219 470.378906 623.5 C 458.097656 624.296875 448.683594 634.824219 449.324219 647.105469 C 449.960938 659.386719 460.648438 668.636719 472.929688 668 Z M 472.929688 668 " fill-opacity="1" fill-rule="nonzero"/><path fill="#CD9F89" d="M 319.8125 794.96875 C 319.089844 794.890625 318.375 794.78125 317.664062 794.632812 C 316.953125 794.488281 316.25 794.304688 315.558594 794.089844 C 314.863281 793.875 314.183594 793.625 313.511719 793.34375 C 312.84375 793.0625 312.191406 792.746094 311.554688 792.398438 C 310.914062 792.054688 310.296875 791.675781 309.695312 791.269531 C 309.09375 790.863281 308.515625 790.425781 307.957031 789.960938 C 307.398438 789.496094 306.863281 789.007812 306.355469 788.488281 C 305.84375 787.972656 305.359375 787.429688 304.902344 786.867188 C 304.445312 786.300781 304.019531 785.71875 303.621094 785.109375 C 303.21875 784.503906 302.851562 783.878906 302.515625 783.238281 C 302.175781 782.59375 301.871094 781.9375 301.597656 781.261719 C 301.324219 780.589844 301.085938 779.90625 300.878906 779.210938 C 300.671875 778.515625 300.5 777.808594 300.363281 777.097656 C 300.226562 776.382812 300.125 775.664062 300.058594 774.941406 C 299.992188 774.21875 299.960938 773.492188 299.96875 772.769531 C 299.972656 772.042969 300.011719 771.316406 300.089844 770.59375 C 300.164062 769.875 300.277344 769.15625 300.421875 768.445312 C 300.570312 767.734375 300.75 767.03125 300.964844 766.339844 C 301.179688 765.644531 301.429688 764.964844 301.710938 764.296875 C 301.996094 763.625 302.308594 762.972656 302.65625 762.335938 C 303.003906 761.695312 303.378906 761.078125 303.789062 760.476562 C 304.195312 759.875 304.632812 759.296875 305.097656 758.738281 C 305.558594 758.179688 306.050781 757.644531 306.566406 757.136719 C 307.085938 756.625 307.625 756.140625 308.191406 755.683594 C 308.753906 755.230469 309.339844 754.800781 309.945312 754.402344 C 310.550781 754.003906 311.175781 753.632812 311.820312 753.296875 C 312.460938 752.957031 313.121094 752.652344 313.792969 752.378906 C 314.464844 752.105469 315.148438 751.867188 315.847656 751.660156 C 316.542969 751.453125 317.246094 751.28125 317.960938 751.144531 C 318.671875 751.007812 319.390625 750.90625 320.113281 750.839844 C 320.835938 750.773438 321.5625 750.746094 322.289062 750.75 C 323.015625 750.753906 323.738281 750.792969 324.460938 750.871094 C 325.183594 750.945312 325.898438 751.058594 326.609375 751.203125 C 327.320312 751.351562 328.023438 751.53125 328.71875 751.746094 C 329.410156 751.964844 330.09375 752.210938 330.761719 752.496094 C 331.429688 752.777344 332.082031 753.089844 332.722656 753.4375 C 333.359375 753.785156 333.980469 754.160156 334.582031 754.570312 C 335.179688 754.976562 335.761719 755.414062 336.320312 755.878906 C 336.878906 756.34375 337.410156 756.832031 337.921875 757.347656 C 338.429688 757.867188 338.914062 758.40625 339.371094 758.972656 C 339.828125 759.535156 340.257812 760.121094 340.65625 760.726562 C 341.054688 761.335938 341.421875 761.957031 341.761719 762.601562 C 342.097656 763.246094 342.40625 763.902344 342.675781 764.574219 C 342.949219 765.246094 343.191406 765.933594 343.398438 766.628906 C 343.601562 767.324219 343.773438 768.027344 343.910156 768.742188 C 344.046875 769.457031 344.148438 770.171875 344.214844 770.898438 C 344.28125 771.621094 344.3125 772.34375 344.308594 773.070312 C 344.300781 773.796875 344.261719 774.519531 344.1875 775.242188 C 344.109375 775.964844 344 776.683594 343.851562 777.394531 C 343.707031 778.105469 343.523438 778.804688 343.308594 779.5 C 343.09375 780.191406 342.84375 780.875 342.5625 781.542969 C 342.28125 782.210938 341.964844 782.867188 341.617188 783.503906 C 341.273438 784.140625 340.894531 784.761719 340.488281 785.363281 C 340.078125 785.964844 339.644531 786.542969 339.179688 787.101562 C 338.714844 787.660156 338.222656 788.191406 337.707031 788.703125 C 337.191406 789.210938 336.648438 789.695312 336.085938 790.152344 C 335.519531 790.609375 334.933594 791.039062 334.328125 791.4375 C 333.722656 791.835938 333.097656 792.207031 332.453125 792.542969 C 331.8125 792.882812 331.15625 793.1875 330.480469 793.460938 C 329.808594 793.734375 329.125 793.972656 328.429688 794.179688 C 327.730469 794.386719 327.027344 794.554688 326.3125 794.691406 C 325.601562 794.828125 324.882812 794.929688 324.160156 794.996094 C 323.4375 795.0625 322.710938 795.09375 321.984375 795.089844 C 321.257812 795.085938 320.535156 795.042969 319.8125 794.96875 Z M 319.8125 794.96875 " fill-opacity="1" fill-rule="nonzero"/><path fill="#CD9F89" d="M 335.917969 650.933594 C 348.199219 650.613281 357.769531 640.40625 357.449219 628.125 C 357.132812 615.84375 346.921875 606.273438 334.640625 606.589844 C 322.359375 606.910156 312.789062 617.117188 313.109375 629.398438 C 313.429688 641.683594 323.636719 651.25 335.917969 650.933594 Z M 335.917969 650.933594 " fill-opacity="1" fill-rule="nonzero"/><path fill="#CD9F89" d="M 157.4375 924.796875 C 154.882812 925.117188 152.332031 926.390625 150.417969 928.464844 L 126.171875 954.304688 C 121.707031 959.089844 121.867188 966.746094 126.8125 971.210938 C 131.597656 975.675781 139.253906 975.519531 143.71875 970.574219 L 167.964844 944.734375 C 172.429688 939.949219 172.269531 932.292969 167.324219 927.828125 C 164.613281 925.273438 160.945312 924.316406 157.4375 924.796875 Z M 157.4375 924.796875 " fill-opacity="1" fill-rule="nonzero"/><path fill="#CD9F89" d="M 192.527344 887.3125 C 189.972656 887.632812 187.421875 888.910156 185.507812 890.984375 L 174.664062 902.625 C 170.195312 907.410156 170.355469 915.066406 175.300781 919.535156 C 180.085938 924 187.742188 923.839844 192.207031 918.894531 L 203.054688 907.25 C 207.519531 902.464844 207.359375 894.808594 202.414062 890.34375 C 199.703125 887.792969 196.035156 886.675781 192.527344 887.3125 Z M 192.527344 887.3125 " fill-opacity="1" fill-rule="nonzero"/><path fill="#CD9F89" d="M 640.085938 945.851562 L 667.363281 968.5 C 672.464844 972.804688 679.960938 972.007812 684.269531 966.90625 C 688.574219 961.800781 687.777344 954.304688 682.675781 949.996094 L 655.398438 927.347656 C 653.324219 925.59375 650.773438 924.636719 648.382812 924.636719 C 644.710938 924.476562 641.042969 925.914062 638.652344 928.945312 C 634.34375 934.046875 634.984375 941.542969 640.085938 945.851562 Z M 640.085938 945.851562 " fill-opacity="1" fill-rule="nonzero"/><path fill="#CD9F89" d="M 600.691406 912.835938 L 612.972656 923.042969 C 618.074219 927.347656 625.574219 926.550781 629.878906 921.445312 C 634.183594 916.34375 633.386719 908.847656 628.285156 904.539062 L 616.003906 894.332031 C 613.929688 892.578125 611.375 891.621094 608.984375 891.621094 C 605.316406 891.460938 601.648438 892.898438 599.253906 895.925781 C 594.789062 901.191406 595.585938 908.6875 600.691406 912.835938 Z M 600.691406 912.835938 " fill-opacity="1" fill-rule="nonzero"/><path fill="#CD9F89" d="M 626.847656 486.167969 C 631.792969 490.632812 639.449219 490.15625 643.753906 485.371094 L 667.679688 458.894531 C 672.148438 453.949219 671.667969 446.453125 666.882812 441.984375 C 664.332031 439.753906 661.300781 438.796875 658.109375 438.957031 C 655.082031 439.113281 652.050781 440.390625 649.816406 442.941406 L 625.890625 469.421875 C 621.585938 474.207031 621.902344 481.703125 626.847656 486.167969 Z M 626.847656 486.167969 " fill-opacity="1" fill-rule="nonzero"/><path fill="#CD9F89" d="M 592.238281 524.609375 C 597.179688 529.074219 604.835938 528.59375 609.144531 523.808594 L 619.832031 511.847656 C 624.296875 506.902344 623.816406 499.40625 619.03125 494.941406 C 616.480469 492.707031 613.449219 491.75 610.261719 491.910156 C 607.230469 492.070312 604.199219 493.34375 601.964844 495.898438 L 591.28125 507.859375 C 586.972656 512.484375 587.292969 520.140625 592.238281 524.609375 Z M 592.238281 524.609375 " fill-opacity="1" fill-rule="nonzero"/><path fill="#CD9F89" d="M 129.203125 460.488281 L 155.679688 484.09375 C 160.625 488.5625 168.121094 488.082031 172.589844 483.136719 C 177.054688 478.191406 176.574219 470.695312 171.632812 466.230469 L 145.15625 442.625 C 142.761719 440.550781 139.730469 439.433594 136.859375 439.59375 C 133.671875 439.753906 130.640625 441.027344 128.246094 443.582031 C 123.941406 448.527344 124.257812 456.023438 129.203125 460.488281 Z M 129.203125 460.488281 " fill-opacity="1" fill-rule="nonzero"/><path fill="#CD9F89" d="M 182.160156 507.859375 L 194.121094 518.546875 C 199.066406 523.011719 206.5625 522.535156 211.027344 517.589844 C 215.496094 512.644531 215.015625 505.148438 210.070312 500.683594 L 198.109375 489.996094 C 195.714844 487.921875 192.6875 486.804688 189.816406 486.964844 C 186.625 487.125 183.433594 488.402344 181.203125 490.953125 C 176.894531 495.898438 177.214844 503.394531 182.160156 507.859375 Z M 182.160156 507.859375 " fill-opacity="1" fill-rule="nonzero"/><g clip-path="url(#2706cb35b3)"><path fill="#CD9F89" d="M -2439.882812 494.621094 C -2439.722656 541.355469 -2432.226562 582.667969 -2417.554688 617.597656 C -2397.136719 666.246094 -2360.132812 702.609375 -2313.398438 720.15625 C -2300.957031 724.78125 -2286.921875 728.769531 -2271.929688 731.640625 C -2280.382812 733.394531 -2288.359375 735.46875 -2295.375 737.542969 C -2346.414062 752.214844 -2387.726562 783.636719 -2411.652344 826.382812 C -2440.203125 877.582031 -2448.335938 944.414062 -2436.214844 1030.707031 C -2434.78125 1040.914062 -2424.09375 1042.667969 -2418.191406 1043.625 C -2413.566406 1044.421875 -2407.34375 1045.058594 -2399.53125 1045.699219 C -2390.597656 1046.335938 -2380.070312 1046.972656 -2368.265625 1047.453125 L -2367.628906 1047.453125 C -2321.054688 1049.367188 -2279.265625 1043.464844 -2243.855469 1030.386719 C -2194.410156 1012.042969 -2156.449219 976.476562 -2136.988281 930.539062 C -2131.246094 917.140625 -2126.304688 901.507812 -2122.792969 884.921875 C -2117.53125 909.164062 -2108.28125 932.132812 -2098.230469 950.636719 C -2074.148438 994.339844 -2032.835938 1025.761719 -1981.796875 1039 C -1945.109375 1048.570312 -1903.160156 1050.003906 -1856.90625 1043.464844 L -1856.269531 1043.304688 C -1844.464844 1041.710938 -1834.097656 1039.957031 -1825.324219 1038.363281 C -1817.667969 1036.925781 -1811.449219 1035.648438 -1806.980469 1034.375 C -1805.867188 1034.054688 -1804.589844 1033.734375 -1803.3125 1033.257812 C -1799.324219 1035.96875 -1794.222656 1036.765625 -1790.871094 1037.402344 C -1786.246094 1038.203125 -1780.027344 1038.839844 -1772.210938 1039.476562 C -1763.277344 1040.117188 -1752.75 1040.753906 -1740.949219 1041.230469 L -1740.308594 1041.230469 C -1693.734375 1043.144531 -1651.945312 1037.246094 -1616.539062 1024.164062 C -1567.09375 1005.824219 -1529.128906 970.253906 -1509.671875 924.316406 C -1503.929688 910.917969 -1498.984375 895.289062 -1495.476562 878.699219 C -1490.210938 902.945312 -1480.960938 925.914062 -1470.914062 944.414062 C -1446.828125 988.117188 -1405.515625 1019.539062 -1354.476562 1032.777344 C -1317.792969 1042.347656 -1275.84375 1043.785156 -1229.585938 1037.246094 L -1228.949219 1037.085938 C -1217.144531 1035.488281 -1206.777344 1033.734375 -1198.003906 1032.140625 C -1190.347656 1030.707031 -1184.128906 1029.429688 -1179.664062 1028.152344 C -1178.226562 1027.835938 -1176.472656 1027.355469 -1174.71875 1026.558594 C -1170.730469 1029.90625 -1164.828125 1030.863281 -1161.160156 1031.503906 C -1156.535156 1032.300781 -1150.316406 1032.9375 -1142.5 1033.574219 C -1133.566406 1034.214844 -1123.039062 1034.851562 -1111.238281 1035.332031 L -1110.597656 1035.332031 C -1064.023438 1037.246094 -1022.234375 1031.34375 -986.824219 1018.265625 C -937.378906 999.921875 -899.417969 964.351562 -879.960938 918.417969 C -874.21875 905.019531 -869.273438 889.386719 -865.765625 872.796875 C -860.5 897.042969 -851.25 920.011719 -841.203125 938.511719 C -817.117188 982.214844 -775.804688 1013.636719 -724.765625 1026.875 C -688.078125 1036.445312 -646.132812 1037.882812 -599.875 1031.34375 L -599.238281 1031.183594 C -587.433594 1029.589844 -577.066406 1027.835938 -568.292969 1026.238281 C -560.636719 1024.804688 -554.417969 1023.527344 -549.953125 1022.25 C -548.835938 1021.933594 -547.558594 1021.613281 -546.28125 1021.136719 C -542.296875 1023.847656 -537.191406 1024.644531 -533.84375 1025.28125 C -529.214844 1026.078125 -522.996094 1026.71875 -515.179688 1027.355469 C -506.25 1027.992188 -495.722656 1028.632812 -483.917969 1029.109375 L -483.28125 1029.109375 C -436.707031 1031.023438 -394.917969 1025.121094 -359.507812 1012.042969 C -310.0625 993.699219 -272.101562 958.132812 -252.640625 912.195312 C -246.898438 898.796875 -241.953125 883.167969 -238.445312 866.578125 C -233.183594 890.820312 -223.929688 913.789062 -213.882812 932.292969 C -189.796875 975.996094 -148.488281 1007.417969 -97.445312 1020.65625 C -60.761719 1030.226562 -18.8125 1031.660156 27.441406 1025.121094 L 28.082031 1024.964844 C 39.882812 1023.367188 50.253906 1021.613281 59.023438 1020.019531 C 66.679688 1018.582031 72.902344 1017.308594 77.367188 1016.03125 C 79.441406 1015.394531 82.3125 1014.753906 85.023438 1013.320312 C 89.011719 1016.507812 94.59375 1017.464844 98.261719 1017.945312 C 102.886719 1018.742188 109.109375 1019.378906 116.921875 1020.019531 C 125.855469 1020.65625 136.382812 1021.292969 148.1875 1021.773438 L 148.824219 1021.773438 C 195.398438 1023.6875 237.1875 1017.785156 272.597656 1004.707031 C 322.042969 986.363281 360.003906 950.792969 379.460938 904.859375 C 385.203125 891.460938 390.148438 875.828125 393.660156 859.242188 C 398.921875 883.484375 408.171875 906.453125 418.222656 924.957031 C 442.304688 968.660156 483.617188 1000.082031 534.65625 1013.320312 C 571.34375 1022.890625 613.292969 1024.324219 659.546875 1017.785156 L 660.183594 1017.625 C 671.988281 1016.03125 682.355469 1014.277344 691.128906 1012.679688 C 698.785156 1011.246094 705.003906 1009.96875 709.472656 1008.695312 C 715.054688 1007.097656 725.582031 1004.226562 726.058594 994.019531 C 729.25 906.773438 714.414062 841.21875 680.761719 793.207031 C 652.6875 753.171875 608.347656 726.058594 556.03125 716.804688 C 554.277344 716.488281 552.523438 716.167969 550.609375 715.847656 C 570.226562 711.703125 588.726562 705.320312 604.359375 697.984375 C 649.816406 676.773438 683.949219 637.375 700.699219 587.132812 C 712.660156 551.085938 716.96875 509.136719 713.300781 462.402344 L 713.300781 461.765625 C 712.34375 449.800781 711.386719 439.273438 710.429688 430.5 C 709.472656 422.6875 708.515625 416.464844 707.714844 411.839844 C 706.601562 406.097656 704.367188 395.410156 694 394.292969 C 664.492188 391.265625 637.375 390.464844 612.335938 392.0625 C 563.367188 394.933594 522.855469 406.417969 489.519531 426.671875 C 447.570312 452.195312 417.425781 494.78125 404.664062 546.617188 C 403.070312 553.316406 401.3125 560.8125 399.878906 568.628906 C 396.847656 553.796875 392.859375 539.917969 389.03125 528.433594 C 372.285156 478.03125 339.109375 438 295.40625 415.988281 C 259.996094 398.121094 217.886719 389.988281 167.644531 391.421875 C 143.71875 392.0625 117.878906 394.933594 90.128906 400.035156 C 79.917969 401.949219 78.644531 412.636719 78.003906 418.539062 C 77.6875 421.730469 77.207031 425.875 77.046875 430.820312 C 76.410156 426.195312 75.773438 422.207031 75.132812 419.015625 C 74.019531 413.273438 71.785156 402.589844 61.417969 401.472656 C 31.910156 398.441406 4.792969 397.644531 -20.246094 399.238281 C -69.214844 402.109375 -109.726562 413.59375 -143.0625 433.851562 C -185.011719 459.371094 -215.15625 501.957031 -227.917969 553.796875 C -229.511719 560.496094 -231.269531 567.992188 -232.703125 575.808594 C -235.734375 560.972656 -239.722656 547.097656 -243.550781 535.613281 C -260.296875 485.210938 -293.472656 445.175781 -337.175781 423.164062 C -372.585938 405.300781 -414.695312 397.164062 -464.9375 398.601562 C -488.863281 399.238281 -514.703125 402.109375 -542.453125 407.214844 C -549.953125 408.648438 -552.664062 414.871094 -553.78125 420.453125 C -555.375 414.871094 -558.40625 408.492188 -566.378906 407.691406 C -595.886719 404.664062 -623.003906 403.863281 -648.042969 405.460938 C -697.011719 408.332031 -737.523438 419.816406 -770.859375 440.070312 C -812.808594 465.589844 -842.957031 508.179688 -855.714844 560.015625 C -857.308594 566.714844 -859.066406 574.210938 -860.5 582.027344 C -863.53125 567.195312 -867.519531 553.316406 -871.347656 541.832031 C -888.09375 491.429688 -921.269531 451.394531 -964.972656 429.386719 C -1000.382812 411.519531 -1042.492188 403.386719 -1092.734375 404.820312 C -1116.660156 405.460938 -1142.5 408.332031 -1170.253906 413.433594 C -1180.460938 415.347656 -1181.734375 426.035156 -1182.375 431.9375 C -1182.375 432.253906 -1182.375 432.574219 -1182.535156 433.054688 C -1182.691406 432.414062 -1182.851562 431.777344 -1182.851562 431.140625 C -1183.96875 425.398438 -1186.203125 414.710938 -1196.570312 413.59375 C -1226.078125 410.5625 -1253.191406 409.765625 -1278.234375 411.359375 C -1327.199219 414.230469 -1367.714844 425.714844 -1401.050781 445.972656 C -1443 471.492188 -1473.144531 514.078125 -1485.90625 565.917969 C -1487.5 572.617188 -1489.253906 580.113281 -1490.691406 587.929688 C -1493.71875 573.09375 -1497.707031 559.21875 -1501.535156 547.734375 C -1518.285156 497.332031 -1551.460938 457.296875 -1595.164062 435.285156 C -1630.574219 417.421875 -1672.679688 409.289062 -1722.921875 410.722656 C -1746.847656 411.359375 -1772.6875 414.230469 -1800.441406 419.335938 C -1807.9375 420.773438 -1810.648438 426.992188 -1811.765625 432.574219 C -1813.359375 426.992188 -1816.390625 420.613281 -1824.367188 419.816406 C -1853.875 416.785156 -1880.988281 415.988281 -1906.03125 417.582031 C -1954.996094 420.453125 -1995.511719 431.9375 -2028.847656 452.195312 C -2070.796875 477.714844 -2100.941406 520.300781 -2113.703125 572.136719 C -2115.296875 578.835938 -2117.050781 586.335938 -2118.488281 594.148438 C -2121.515625 579.316406 -2125.503906 565.441406 -2129.332031 553.957031 C -2146.082031 503.554688 -2179.257812 463.519531 -2222.960938 441.507812 C -2258.371094 423.644531 -2300.476562 415.507812 -2350.722656 416.945312 C -2374.644531 417.582031 -2400.484375 420.453125 -2428.238281 425.558594 C -2438.445312 427.472656 -2439.722656 438.15625 -2440.359375 444.058594 C -2441 448.683594 -2441.320312 454.90625 -2441.636719 462.878906 C -2441.957031 471.8125 -2442.117188 482.339844 -2442.117188 494.300781 Z M -2159 920.96875 C -2175.910156 960.84375 -2208.925781 991.628906 -2252.152344 1007.738281 C -2267.304688 1013.320312 -2283.730469 1017.46875 -2301.277344 1020.179688 C -2321.535156 1023.210938 -2343.386719 1024.324219 -2366.671875 1023.367188 L -2367.308594 1023.367188 C -2380.070312 1022.890625 -2390.117188 1022.25 -2397.617188 1021.773438 C -2393.308594 1016.988281 -2393.628906 1009.492188 -2398.414062 1005.027344 C -2401.125 1002.472656 -2404.953125 1001.355469 -2408.300781 1001.996094 C -2410.855469 1002.3125 -2413.085938 1003.589844 -2415 1005.503906 C -2422.179688 935.003906 -2414.203125 880.136719 -2390.597656 838.027344 C -2369.863281 801.023438 -2333.65625 773.429688 -2288.675781 760.511719 C -2258.050781 751.738281 -2184.203125 735.46875 -2159.160156 772.792969 C -2132.367188 812.507812 -2139.863281 875.828125 -2159 920.96875 Z M -1859.457031 1019.539062 L -1860.097656 1019.699219 C -1903.160156 1025.921875 -1942.082031 1024.484375 -1975.574219 1015.871094 C -2020.234375 1004.226562 -2056.28125 976.953125 -2077.019531 939.152344 C -2100.625 896.246094 -2114.5 833.878906 -2092.011719 791.613281 C -2070.957031 751.898438 -1995.671875 760.667969 -1964.410156 766.253906 C -1918.316406 774.386719 -1879.554688 798.152344 -1855.152344 832.921875 C -1827.558594 872.160156 -1814 925.753906 -1813.679688 995.933594 C -1813.839844 995.933594 -1814.160156 995.933594 -1814.320312 995.933594 C -1817.988281 995.773438 -1821.65625 997.210938 -1824.050781 1000.242188 C -1827.558594 1004.386719 -1827.71875 1010.128906 -1824.847656 1014.4375 C -1832.820312 1015.394531 -1844.144531 1017.308594 -1859.457031 1019.539062 Z M -1815.59375 612.652344 C -1810.492188 597.5 -1806.984375 581.230469 -1804.589844 564.003906 C -1800.921875 580.910156 -1796.136719 596.703125 -1789.914062 611.375 C -1769.5 660.023438 -1732.496094 696.390625 -1685.761719 713.9375 C -1673.320312 718.5625 -1659.285156 722.550781 -1644.292969 725.417969 C -1652.746094 727.175781 -1660.71875 729.246094 -1667.738281 731.320312 C -1718.777344 745.996094 -1760.089844 777.417969 -1784.015625 820.164062 C -1793.902344 837.707031 -1801.242188 857.167969 -1806.34375 878.699219 C -1813.679688 856.210938 -1823.410156 836.433594 -1835.691406 818.886719 C -1863.765625 778.851562 -1908.105469 751.738281 -1960.421875 742.484375 C -1962.175781 742.167969 -1963.933594 741.847656 -1965.847656 741.527344 C -1946.226562 737.382812 -1927.726562 731.003906 -1912.09375 723.664062 C -1866.476562 702.292969 -1832.34375 662.894531 -1815.59375 612.652344 Z M -1531.363281 914.90625 C -1548.269531 954.78125 -1581.289062 985.566406 -1624.511719 1001.675781 C -1639.664062 1007.257812 -1656.09375 1011.40625 -1673.640625 1014.117188 C -1693.894531 1017.148438 -1715.746094 1018.265625 -1739.035156 1017.308594 L -1739.671875 1017.308594 C -1752.433594 1016.828125 -1762.480469 1016.191406 -1769.976562 1015.710938 C -1765.671875 1010.925781 -1765.992188 1003.429688 -1770.777344 998.964844 C -1773.488281 996.414062 -1777.316406 995.296875 -1780.664062 995.933594 C -1783.21875 996.253906 -1785.449219 997.527344 -1787.363281 999.441406 C -1794.542969 928.945312 -1786.566406 874.074219 -1762.960938 831.964844 C -1742.226562 794.960938 -1706.019531 767.367188 -1661.039062 754.449219 C -1630.414062 745.675781 -1556.566406 729.40625 -1531.523438 766.730469 C -1504.886719 806.285156 -1512.222656 869.769531 -1531.363281 914.90625 Z M -1231.980469 1013.320312 L -1232.617188 1013.480469 C -1275.683594 1019.699219 -1314.601562 1018.265625 -1348.097656 1009.652344 C -1392.757812 998.007812 -1428.804688 970.734375 -1449.539062 932.929688 C -1473.144531 890.023438 -1487.023438 827.660156 -1464.53125 785.390625 C -1443.480469 745.675781 -1368.195312 754.449219 -1336.933594 760.03125 C -1290.835938 768.167969 -1252.078125 791.933594 -1227.671875 826.703125 C -1200.078125 865.941406 -1186.523438 919.53125 -1186.203125 989.714844 C -1186.363281 989.714844 -1186.683594 989.714844 -1186.839844 989.714844 C -1190.511719 989.554688 -1194.179688 990.988281 -1196.570312 994.019531 C -1200.078125 998.167969 -1200.238281 1003.910156 -1197.367188 1008.214844 C -1205.34375 1009.332031 -1216.507812 1011.085938 -1231.980469 1013.320312 Z M -1188.117188 606.589844 C -1182.375 589.367188 -1178.386719 570.703125 -1176.3125 550.765625 C -1172.644531 570.542969 -1167.222656 588.886719 -1160.046875 605.632812 C -1139.628906 654.28125 -1102.625 690.648438 -1055.890625 708.195312 C -1043.449219 712.820312 -1029.414062 716.808594 -1014.421875 719.679688 C -1022.875 721.433594 -1030.847656 723.507812 -1037.867188 725.578125 C -1088.90625 740.253906 -1130.21875 771.675781 -1154.144531 814.421875 C -1164.671875 833.242188 -1172.328125 854.136719 -1177.269531 877.265625 C -1184.765625 853.019531 -1194.976562 831.488281 -1208.054688 812.828125 C -1236.128906 772.792969 -1280.46875 745.675781 -1332.785156 736.425781 C -1334.539062 736.105469 -1336.292969 735.789062 -1338.207031 735.46875 C -1318.589844 731.320312 -1300.085938 724.941406 -1284.457031 717.605469 C -1239 696.230469 -1204.707031 656.835938 -1188.117188 606.589844 Z M -901.492188 909.007812 C -918.402344 948.882812 -951.417969 979.664062 -994.640625 995.773438 C -1009.792969 1001.355469 -1026.222656 1005.503906 -1043.769531 1008.214844 C -1064.023438 1011.246094 -1085.878906 1012.363281 -1109.164062 1011.40625 L -1109.800781 1011.40625 C -1122.5625 1010.925781 -1132.609375 1010.289062 -1140.109375 1009.8125 C -1135.800781 1005.027344 -1136.121094 997.527344 -1140.90625 993.0625 C -1143.617188 990.511719 -1147.445312 989.394531 -1150.792969 990.03125 C -1153.347656 990.351562 -1155.578125 991.628906 -1157.492188 993.542969 C -1164.671875 923.042969 -1156.695312 868.171875 -1133.089844 826.066406 C -1112.355469 789.0625 -1076.148438 761.46875 -1031.167969 748.546875 C -1000.542969 739.773438 -926.695312 723.507812 -901.652344 760.828125 C -875.015625 800.546875 -882.351562 863.867188 -901.492188 909.007812 Z M -601.949219 1007.578125 L -602.585938 1007.738281 C -645.652344 1013.957031 -684.570312 1012.523438 -718.066406 1003.910156 C -762.726562 992.265625 -798.773438 964.992188 -819.507812 927.1875 C -843.117188 884.28125 -856.992188 821.917969 -834.503906 779.648438 C -813.449219 739.933594 -738.164062 748.707031 -706.902344 754.289062 C -660.804688 762.425781 -622.046875 786.191406 -597.644531 820.960938 C -570.050781 860.199219 -556.492188 913.789062 -556.171875 983.972656 C -556.332031 983.972656 -556.492188 983.972656 -556.8125 983.972656 C -560.480469 983.8125 -564.148438 985.246094 -566.539062 988.277344 C -570.050781 992.425781 -570.210938 998.167969 -567.339844 1002.472656 C -575.472656 1003.429688 -586.636719 1005.34375 -601.949219 1007.578125 Z M -558.246094 600.691406 C -553.144531 585.539062 -549.632812 569.269531 -547.242188 552.042969 C -543.574219 568.949219 -538.789062 584.738281 -532.566406 599.414062 C -512.152344 648.0625 -475.144531 684.429688 -428.414062 701.972656 C -415.972656 706.597656 -401.933594 710.585938 -386.941406 713.457031 C -395.394531 715.210938 -403.371094 717.285156 -410.390625 719.359375 C -461.429688 734.03125 -502.742188 765.453125 -526.664062 808.199219 C -536.554688 825.746094 -543.890625 845.203125 -548.996094 866.738281 C -556.332031 844.25 -566.0625 824.46875 -578.34375 806.925781 C -606.417969 766.890625 -650.757812 739.773438 -703.074219 730.523438 C -704.828125 730.203125 -706.582031 729.886719 -708.496094 729.566406 C -688.878906 725.417969 -670.375 719.039062 -654.746094 711.703125 C -609.128906 690.328125 -574.835938 650.933594 -558.246094 600.691406 Z M -274.015625 902.945312 C -290.921875 942.820312 -323.9375 973.605469 -367.164062 989.714844 C -382.316406 995.296875 -398.746094 999.441406 -416.289062 1002.15625 C -436.546875 1005.183594 -458.398438 1006.300781 -481.6875 1005.34375 L -482.324219 1005.34375 C -495.085938 1004.867188 -505.132812 1004.226562 -512.628906 1003.75 C -508.324219 998.964844 -508.640625 991.46875 -513.425781 987.003906 C -516.136719 984.449219 -519.964844 983.332031 -523.316406 983.972656 C -525.867188 984.289062 -528.101562 985.566406 -530.015625 987.480469 C -537.191406 916.980469 -529.21875 862.113281 -505.609375 820.003906 C -484.875 783 -448.667969 755.40625 -403.691406 742.488281 C -373.066406 733.714844 -299.214844 717.445312 -274.175781 754.769531 C -247.539062 794.324219 -254.875 857.804688 -274.015625 902.945312 Z M 25.527344 1001.355469 L 24.890625 1001.515625 C -18.175781 1007.738281 -57.09375 1006.300781 -90.589844 997.6875 C -135.25 986.046875 -171.296875 958.769531 -192.03125 920.96875 C -215.636719 878.0625 -229.515625 815.699219 -207.023438 773.429688 C -185.96875 733.714844 -110.6875 742.488281 -79.421875 748.070312 C -33.328125 756.203125 5.429688 779.96875 29.835938 814.742188 C 57.429688 853.976562 70.984375 907.570312 71.304688 977.75 C 71.144531 977.75 70.984375 977.75 70.667969 977.75 C 67 977.589844 63.332031 979.027344 60.9375 982.058594 C 57.429688 986.203125 57.269531 991.945312 60.140625 996.253906 C 52.003906 997.371094 40.839844 999.125 25.527344 1001.355469 Z M 358.25 895.765625 C 341.339844 935.644531 308.324219 966.425781 265.097656 982.535156 C 249.945312 988.117188 233.519531 992.265625 215.972656 994.976562 C 195.714844 998.007812 173.863281 999.125 150.578125 998.167969 L 149.9375 998.167969 C 137.179688 997.6875 127.128906 997.050781 119.632812 996.570312 C 123.941406 991.789062 123.621094 984.289062 118.835938 979.824219 C 116.125 977.273438 112.296875 976.15625 108.949219 976.792969 C 106.394531 977.113281 104.164062 978.390625 102.25 980.304688 C 95.070312 909.804688 103.046875 854.933594 126.652344 812.828125 C 147.386719 775.824219 183.59375 748.230469 228.574219 735.308594 C 259.199219 726.535156 333.046875 710.265625 358.089844 747.589844 C 384.886719 787.148438 377.386719 850.628906 358.25 895.765625 Z M 662.097656 807.242188 C 689.691406 846.480469 703.25 900.074219 703.570312 970.253906 C 703.410156 970.253906 703.25 970.253906 702.929688 970.253906 C 699.261719 970.09375 695.59375 971.53125 693.199219 974.5625 C 689.691406 978.707031 689.53125 984.449219 692.402344 988.757812 C 684.429688 990.351562 673.261719 992.105469 657.949219 994.339844 L 657.3125 994.5 C 614.246094 1000.71875 575.328125 999.285156 541.835938 990.671875 C 497.171875 979.027344 461.125 951.753906 440.390625 913.949219 C 416.785156 871.042969 402.910156 808.679688 425.398438 766.410156 C 446.453125 726.695312 521.738281 735.46875 553 741.050781 C 598.777344 748.867188 637.695312 772.472656 662.097656 807.242188 Z M 429.066406 552.359375 C 440.390625 506.742188 466.550781 469.421875 503.074219 447.25 C 545.183594 421.730469 601.007812 411.679688 673.582031 416.625 C 669.433594 421.570312 669.914062 428.90625 674.699219 433.214844 C 678.367188 436.5625 683.472656 437.199219 687.617188 435.289062 C 688.414062 442.625 689.371094 451.875 690.171875 463.679688 L 690.171875 464.316406 C 693.519531 507.859375 689.691406 546.621094 678.6875 579.796875 C 664.171875 623.660156 634.34375 658.109375 594.949219 676.453125 C 550.289062 697.347656 486.964844 707.078125 445.972656 681.875 C 407.695312 658.109375 421.410156 583.464844 429.066406 552.359375 Z M 399.71875 650.773438 C 404.503906 671.988281 414.550781 690.648438 433.53125 702.292969 C 442.945312 708.035156 452.992188 712.339844 463.359375 715.371094 C 438.316406 720.476562 416.148438 732.117188 404.023438 754.925781 C 400.515625 761.625 397.644531 768.484375 395.570312 775.664062 C 392.222656 760.988281 386.640625 746.792969 378.027344 734.191406 C 367.5 718.402344 352.027344 709.308594 334.484375 704.523438 C 348.835938 700.539062 362.554688 694.316406 374.675781 685.386719 C 387.117188 676.292969 394.933594 664.332031 399.71875 650.773438 Z M 285.835938 437.519531 C 323.796875 456.660156 352.824219 491.75 367.5 536.09375 C 377.546875 566.238281 397.007812 639.449219 360.640625 666.085938 C 342.296875 679.644531 318.214844 685.542969 293.011719 686.34375 C 265.417969 687.140625 236.546875 681.558594 212.464844 672.464844 C 171.949219 657.3125 139.730469 625.570312 121.867188 582.984375 C 108.46875 551.085938 101.449219 512.804688 101.449219 469.261719 L 101.449219 468.464844 C 101.449219 454.425781 101.609375 443.742188 101.929688 435.925781 L 102.886719 436.722656 C 107.832031 441.1875 115.328125 440.710938 119.792969 435.765625 C 123.941406 431.140625 123.78125 424.121094 119.632812 419.65625 C 188.539062 410.085938 243.089844 415.988281 285.835938 437.519531 Z M 82.152344 529.074219 C 85.820312 552.042969 91.722656 573.097656 99.855469 592.238281 C 120.273438 640.882812 157.277344 677.25 204.011719 694.796875 C 216.453125 699.421875 230.488281 703.410156 245.480469 706.28125 C 237.027344 708.035156 229.050781 710.109375 222.035156 712.179688 C 170.992188 726.855469 129.683594 758.277344 105.757812 801.023438 C 94.433594 821.28125 86.296875 843.929688 81.355469 869.449219 C 73.855469 843.449219 63.171875 820.640625 49.292969 800.863281 C 21.222656 760.828125 -23.121094 733.714844 -75.4375 724.460938 C -77.191406 724.144531 -78.945312 723.824219 -80.859375 723.503906 C -61.242188 719.359375 -42.738281 712.980469 -27.105469 705.640625 C 18.351562 684.429688 52.484375 645.03125 69.230469 594.789062 C 75.929688 574.53125 80.238281 552.519531 82.152344 529.074219 Z M -203.355469 559.539062 C -192.03125 513.921875 -165.875 476.597656 -129.347656 454.425781 C -87.238281 428.90625 -31.414062 418.859375 41.160156 423.804688 C 37.011719 428.746094 37.492188 436.085938 42.277344 440.390625 C 45.945312 443.742188 51.046875 444.378906 55.195312 442.464844 C 55.992188 449.800781 56.949219 459.054688 57.746094 470.855469 L 57.746094 471.492188 C 61.097656 515.039062 57.269531 553.796875 46.261719 586.972656 C 31.75 630.835938 1.921875 665.289062 -37.476562 683.632812 C -82.136719 704.527344 -145.457031 714.253906 -186.449219 689.054688 C -224.570312 665.289062 -211.011719 590.640625 -203.355469 559.539062 Z M -232.703125 657.949219 C -227.917969 679.164062 -217.871094 697.828125 -198.890625 709.46875 C -189.480469 715.210938 -179.429688 719.519531 -169.0625 722.550781 C -194.105469 727.652344 -216.277344 739.296875 -228.398438 762.105469 C -231.90625 768.804688 -234.777344 775.664062 -236.851562 782.839844 C -240.199219 768.167969 -245.785156 753.972656 -254.394531 741.371094 C -264.921875 725.578125 -280.394531 716.488281 -297.941406 711.703125 C -283.585938 707.714844 -269.867188 701.496094 -257.746094 692.5625 C -245.304688 683.472656 -237.328125 671.507812 -232.703125 657.949219 Z M -346.589844 444.699219 C -308.625 463.835938 -279.597656 498.929688 -264.921875 543.269531 C -254.875 573.414062 -235.414062 646.625 -271.78125 673.261719 C -290.125 686.820312 -314.210938 692.722656 -339.410156 693.519531 C -367.003906 694.316406 -395.875 688.734375 -419.957031 679.644531 C -460.472656 664.492188 -492.691406 632.75 -510.554688 590.164062 C -523.953125 558.261719 -530.972656 519.980469 -530.972656 476.4375 L -530.972656 475.640625 C -530.972656 461.605469 -530.8125 450.917969 -530.492188 443.101562 L -529.535156 443.898438 C -524.59375 448.367188 -517.09375 447.886719 -512.628906 442.941406 C -508.480469 438.316406 -508.640625 431.300781 -512.789062 426.832031 C -443.722656 417.261719 -389.175781 423.164062 -346.589844 444.699219 Z M -830.835938 565.757812 C -819.507812 520.140625 -793.351562 482.820312 -756.824219 460.648438 C -714.71875 435.128906 -658.890625 425.078125 -586.320312 430.023438 C -590.464844 434.96875 -589.988281 442.304688 -585.203125 446.613281 C -581.535156 449.960938 -576.429688 450.597656 -572.28125 448.683594 C -571.484375 456.023438 -570.527344 465.273438 -569.730469 477.078125 L -569.730469 477.714844 C -566.382812 521.257812 -570.210938 560.015625 -581.214844 593.195312 C -595.730469 637.054688 -625.554688 671.507812 -664.953125 689.851562 C -709.613281 710.746094 -772.933594 720.476562 -813.925781 695.273438 C -852.207031 671.507812 -838.492188 596.703125 -830.835938 565.757812 Z M -860.183594 664.171875 C -855.398438 685.386719 -845.347656 704.046875 -826.367188 715.691406 C -816.957031 721.433594 -806.910156 725.738281 -796.542969 728.769531 C -821.582031 733.875 -843.753906 745.515625 -855.875 768.324219 C -859.386719 775.023438 -862.257812 781.882812 -864.328125 789.0625 C -867.679688 774.386719 -873.261719 760.191406 -881.875 747.589844 C -892.402344 731.800781 -907.875 722.707031 -925.417969 717.921875 C -911.0625 713.9375 -897.347656 707.714844 -885.222656 698.785156 C -872.78125 689.691406 -864.96875 677.730469 -860.183594 664.171875 Z M -974.066406 450.757812 C -936.105469 469.898438 -907.074219 504.988281 -892.402344 549.332031 C -882.351562 579.476562 -862.894531 652.6875 -899.261719 679.324219 C -917.601562 692.882812 -941.6875 698.78125 -966.890625 699.582031 C -994.484375 700.378906 -1023.351562 694.796875 -1047.4375 685.703125 C -1087.949219 670.550781 -1120.171875 638.8125 -1138.035156 596.222656 C -1151.433594 564.324219 -1158.449219 526.042969 -1158.449219 482.5 L -1158.449219 481.703125 C -1158.449219 467.664062 -1158.289062 456.980469 -1157.972656 449.164062 L -1157.015625 449.960938 C -1152.070312 454.425781 -1144.574219 453.949219 -1140.109375 449.003906 C -1135.960938 444.378906 -1136.121094 437.359375 -1140.265625 432.894531 C -1071.203125 423.484375 -1016.652344 429.226562 -974.066406 450.757812 Z M -1460.707031 571.5 C -1449.378906 525.882812 -1423.222656 488.558594 -1386.695312 466.390625 C -1344.589844 440.871094 -1288.761719 430.820312 -1216.191406 435.765625 C -1220.335938 440.710938 -1219.859375 448.046875 -1215.074219 452.355469 C -1211.40625 455.703125 -1206.300781 456.339844 -1202.152344 454.425781 C -1201.355469 461.765625 -1200.398438 471.015625 -1199.601562 482.820312 L -1199.601562 483.457031 C -1196.253906 527 -1200.078125 565.757812 -1211.085938 598.9375 C -1225.601562 642.796875 -1255.425781 677.25 -1294.824219 695.59375 C -1339.484375 716.488281 -1402.804688 726.21875 -1443.796875 701.015625 C -1482.078125 677.25 -1468.359375 602.605469 -1460.707031 571.5 Z M -1490.054688 669.914062 C -1485.269531 691.128906 -1475.21875 709.789062 -1456.238281 721.433594 C -1446.828125 727.175781 -1436.78125 731.480469 -1426.414062 734.511719 C -1451.453125 739.617188 -1473.625 751.257812 -1485.746094 774.066406 C -1489.257812 780.765625 -1492.128906 787.625 -1494.199219 794.804688 C -1497.550781 780.128906 -1503.132812 765.933594 -1511.746094 753.332031 C -1522.273438 737.542969 -1537.746094 728.449219 -1555.289062 723.664062 C -1540.933594 719.679688 -1527.21875 713.457031 -1515.09375 704.523438 C -1502.652344 695.433594 -1494.839844 683.472656 -1490.054688 669.914062 Z M -1603.9375 456.660156 C -1565.976562 475.800781 -1536.945312 510.890625 -1522.273438 555.230469 C -1512.222656 585.378906 -1492.765625 658.589844 -1529.132812 685.226562 C -1547.472656 698.785156 -1571.558594 704.683594 -1596.761719 705.480469 C -1624.355469 706.28125 -1653.222656 700.699219 -1677.308594 691.605469 C -1717.820312 676.453125 -1750.039062 644.710938 -1767.90625 602.125 C -1781.304688 570.226562 -1788.320312 531.945312 -1788.320312 488.402344 L -1788.320312 487.605469 C -1788.320312 473.566406 -1788.160156 462.878906 -1787.84375 455.066406 L -1786.886719 455.863281 C -1781.941406 460.328125 -1774.445312 459.851562 -1769.980469 454.90625 C -1765.832031 450.28125 -1765.992188 443.261719 -1770.136719 438.796875 C -1701.234375 429.226562 -1646.683594 435.128906 -1603.9375 456.660156 Z M -2088.34375 577.722656 C -2077.019531 532.105469 -2050.859375 494.78125 -2014.335938 472.609375 C -1972.226562 447.089844 -1916.398438 437.042969 -1843.828125 441.984375 C -1847.972656 446.929688 -1847.496094 454.269531 -1842.710938 458.574219 C -1839.042969 461.925781 -1833.9375 462.5625 -1829.792969 460.648438 C -1828.992188 467.984375 -1828.035156 477.234375 -1827.238281 489.039062 L -1827.238281 489.675781 C -1823.890625 533.222656 -1827.71875 571.980469 -1838.722656 605.15625 C -1853.238281 649.019531 -1883.066406 683.472656 -1922.460938 701.8125 C -1967.121094 722.707031 -2030.445312 732.4375 -2071.4375 707.238281 C -2109.554688 683.472656 -2096 608.664062 -2088.34375 577.722656 Z M -2117.53125 676.132812 C -2112.746094 697.347656 -2102.699219 716.007812 -2083.71875 727.652344 C -2074.304688 733.394531 -2064.257812 737.703125 -2053.890625 740.730469 C -2078.933594 745.835938 -2101.101562 757.480469 -2113.226562 780.289062 C -2116.734375 786.988281 -2119.605469 793.847656 -2121.679688 801.023438 C -2125.027344 786.351562 -2130.609375 772.152344 -2139.222656 759.554688 C -2149.75 743.761719 -2165.222656 734.671875 -2182.769531 729.886719 C -2168.414062 725.898438 -2154.695312 719.679688 -2142.574219 710.746094 C -2130.292969 701.652344 -2122.316406 689.691406 -2117.53125 676.132812 Z M -2231.574219 462.722656 C -2193.613281 481.859375 -2164.585938 516.953125 -2149.910156 561.292969 C -2139.863281 591.4375 -2120.402344 664.648438 -2156.769531 691.285156 C -2175.113281 704.84375 -2199.195312 710.746094 -2224.398438 711.542969 C -2251.992188 712.339844 -2280.859375 706.757812 -2304.945312 697.667969 C -2345.457031 682.515625 -2377.679688 650.773438 -2395.542969 608.1875 C -2408.941406 576.285156 -2415.957031 538.007812 -2415.957031 494.460938 L -2415.957031 493.664062 C -2415.957031 479.628906 -2415.800781 468.941406 -2415.480469 461.125 L -2414.523438 461.921875 C -2409.578125 466.390625 -2402.082031 465.910156 -2397.617188 460.964844 C -2393.46875 456.339844 -2393.628906 449.324219 -2397.773438 444.855469 C -2328.710938 435.445312 -2274.164062 441.1875 -2231.574219 462.722656 Z M -2231.574219 462.722656 " fill-opacity="1" fill-rule="nonzero"/></g></svg>