<?xml version="1.0" encoding="UTF-8"?>
<svg version="1.1" xmlns="http://www.w3.org/2000/svg" width="512" height="512">
<path d="M0 0 C2.6740774 -0.00202541 5.34814249 -0.00493761 8.0222168 -0.00869751 C13.60307344 -0.01412096 19.18381011 -0.00705406 24.76464844 0.00732422 C31.17222176 0.02364419 37.57950846 0.01835324 43.98707485 0.001845 C49.53667075 -0.01186816 55.08618151 -0.01364205 60.63578892 -0.00583899 C63.9292344 -0.00121589 67.22251946 -0.00160453 70.51596069 -0.01044846 C106.02478592 -0.08490069 135.46854593 8.36545474 162.3125 32.3984375 C163.09882813 33.08421875 163.88515625 33.77 164.6953125 34.4765625 C184.33058664 52.76042101 197.95990793 81.7331712 199.483459 108.38957596 C199.74797352 116.44196054 199.72704068 124.49717238 199.70467401 132.55292559 C199.6978157 136.21489617 199.70839792 139.87682573 199.71661377 143.53878784 C199.72988181 150.69151803 199.72710451 157.84415322 199.71837585 164.99688697 C199.71157222 170.81540687 199.7106941 176.63390035 199.7139473 182.4524231 C199.714407 183.28379479 199.71486669 184.11516647 199.71534032 184.97173125 C199.7162996 186.66118901 199.71727224 188.35064676 199.7182581 190.04010451 C199.72679169 205.84396071 199.71700985 221.64776451 199.700857 237.45161211 C199.68745567 250.98176502 199.68978434 264.51184068 199.70361328 278.04199219 C199.71970511 293.79327253 199.72596791 309.54450707 199.71677649 325.29579449 C199.71582095 326.97868029 199.71487783 328.66156609 199.7139473 330.3444519 C199.71348447 331.17224201 199.71302164 332.00003211 199.71254479 332.85290676 C199.70996569 338.65749315 199.71430248 344.46205023 199.72138596 350.26663208 C199.72984133 357.35042619 199.72743665 364.43412071 199.71154372 371.51790357 C199.70371488 375.12502723 199.70047606 378.73198546 199.71049118 382.33910751 C199.78136259 410.15440802 199.78136259 410.15440802 196.3125 423.3984375 C196.10054174 424.21652893 195.88858349 425.03462036 195.67020226 425.87750244 C190.28221215 444.67896818 180.26268958 460.93355406 167.3125 475.3984375 C166.62671875 476.18476563 165.9409375 476.97109375 165.234375 477.78125 C146.95914759 497.40725509 118.04105134 510.98998068 91.40621948 512.57094574 C83.14800079 512.85719658 74.88701115 512.8190611 66.625 512.796875 C63.9509226 512.79890041 61.27685751 512.80181261 58.6027832 512.80557251 C53.02192656 512.81099596 47.44118989 512.80392906 41.86035156 512.78955078 C35.45277824 512.77323081 29.04549154 512.77852176 22.63792515 512.79503 C17.08832925 512.80874316 11.53881849 512.81051705 5.98921108 512.80271399 C2.6957656 512.79809089 -0.59751946 512.79847953 -3.89096069 512.80732346 C-39.39978592 512.88177569 -68.84354593 504.43142026 -95.6875 480.3984375 C-96.86699219 479.36976563 -96.86699219 479.36976563 -98.0703125 478.3203125 C-117.70558664 460.03645399 -131.33490793 431.0637038 -132.858459 404.40729904 C-133.12297352 396.35491446 -133.10204068 388.29970262 -133.07967401 380.24394941 C-133.0728157 376.58197883 -133.08339792 372.92004927 -133.09161377 369.25808716 C-133.10488181 362.10535697 -133.10210451 354.95272178 -133.09337585 347.79998803 C-133.08657222 341.98146813 -133.0856941 336.16297465 -133.0889473 330.3444519 C-133.089407 329.51308021 -133.08986669 328.68170853 -133.09034032 327.82514375 C-133.0912996 326.13568599 -133.09227224 324.44622824 -133.0932581 322.75677049 C-133.10179169 306.95291429 -133.09200985 291.14911049 -133.075857 275.34526289 C-133.06245567 261.81510998 -133.06478434 248.28503432 -133.07861328 234.75488281 C-133.09470511 219.00360247 -133.10096791 203.25236793 -133.09177649 187.50108051 C-133.09082095 185.81819471 -133.08987783 184.13530891 -133.0889473 182.4524231 C-133.08848447 181.62463299 -133.08802164 180.79684289 -133.08754479 179.94396824 C-133.08496569 174.13938185 -133.08930248 168.33482477 -133.09638596 162.53024292 C-133.10484133 155.44644881 -133.10243665 148.36275429 -133.08654372 141.27897143 C-133.07871488 137.67184777 -133.07547606 134.06488954 -133.08549118 130.45776749 C-133.15636259 102.64246698 -133.15636259 102.64246698 -129.6875 89.3984375 C-129.47554174 88.58034607 -129.26358349 87.76225464 -129.04520226 86.91937256 C-123.65721215 68.11790682 -113.63768958 51.86332094 -100.6875 37.3984375 C-99.65882812 36.21894531 -99.65882812 36.21894531 -98.609375 35.015625 C-72.52267533 7.00077796 -36.51124852 -0.09804421 0 0 Z M-72.08984375 66.88623047 C-88.65802503 85.42938698 -92.85826251 107.846615 -92.82121277 132.05326843 C-92.82347833 133.16225315 -92.82574388 134.27123788 -92.82807809 135.41382819 C-92.8343617 139.09580193 -92.83359238 142.77773832 -92.83276367 146.4597168 C-92.83575869 149.11367426 -92.8391342 151.7676289 -92.84294128 154.42158508 C-92.85121038 160.86262406 -92.85399442 167.30365387 -92.85455366 173.74469771 C-92.8550306 178.98597159 -92.85709417 184.22724247 -92.86025429 189.4685154 C-92.8690506 204.36331059 -92.87367526 219.25809861 -92.87292381 234.15289643 C-92.87288386 234.95410809 -92.8728439 235.75531975 -92.87280273 236.58081055 C-92.87276185 237.38301247 -92.87272097 238.18521439 -92.87267885 239.01172546 C-92.87227266 252.00367513 -92.88183818 264.99559577 -92.8959411 277.98753705 C-92.91034315 291.36169786 -92.91720919 304.73584455 -92.91634732 318.11001331 C-92.91601668 325.60486091 -92.91870539 333.09967809 -92.92952538 340.59451866 C-92.93868093 346.97677782 -92.94076449 353.35899275 -92.93401595 359.74125566 C-92.93077605 362.98998296 -92.93171247 366.23860908 -92.9393692 369.48733139 C-93.00479148 399.18648314 -90.74538429 426.56614356 -69.17919922 448.92578125 C-47.57704062 470.25216761 -20.90007591 472.55540395 8.01171875 472.56640625 C10.01650515 472.56962776 12.02129133 472.57299247 14.02607727 472.57649231 C18.2142491 472.58245232 22.4024004 472.58433547 26.59057617 472.58374023 C31.91113308 472.58363884 37.23155588 472.59728204 42.55208111 472.61451244 C46.69009485 472.62572698 50.82807714 472.62765656 54.96610451 472.62713051 C56.92535679 472.62829678 58.88461026 472.63264074 60.84384727 472.64046288 C88.97345494 472.7422561 114.82750458 469.15683342 135.83984375 448.89013672 C154.44581176 430.0435743 159.48565064 406.51055956 159.44621277 380.74360657 C159.4496111 379.08012949 159.4496111 379.08012949 159.45307809 377.38304681 C159.4593617 373.70107307 159.45859238 370.01913668 159.45776367 366.3371582 C159.46075869 363.68320074 159.4641342 361.0292461 159.46794128 358.37528992 C159.47621038 351.93425094 159.47899442 345.49322113 159.47955366 339.05217729 C159.4800306 333.81090341 159.48209417 328.56963253 159.48525429 323.3283596 C159.4940506 308.43356441 159.49867526 293.53877639 159.49792381 278.64397857 C159.49788386 277.84276691 159.4978439 277.04155525 159.49780273 276.21606445 C159.49774141 275.01276157 159.49774141 275.01276157 159.49767885 273.78514954 C159.49727266 260.79319987 159.50683818 247.80127923 159.5209411 234.80933795 C159.53534315 221.43517714 159.54220919 208.06103045 159.54134732 194.68686169 C159.54101668 187.19201409 159.54370539 179.69719691 159.55452538 172.20235634 C159.56368093 165.82009718 159.56576449 159.43788225 159.55901595 153.05561934 C159.55577605 149.80689204 159.55671247 146.55826592 159.5643692 143.30954361 C159.62979148 113.61039186 157.37038429 86.23073144 135.80419922 63.87109375 C114.20204062 42.54470739 87.52507591 40.24147105 58.61328125 40.23046875 C56.60849485 40.22724724 54.60370867 40.22388253 52.59892273 40.22038269 C48.4107509 40.21442268 44.2225996 40.21253953 40.03442383 40.21313477 C34.71386692 40.21323616 29.39344412 40.19959296 24.07291889 40.18236256 C19.93490515 40.17114802 15.79692286 40.16921844 11.65889549 40.16974449 C9.69964321 40.16857822 7.74038974 40.16423426 5.78115273 40.15641212 C-23.94716039 40.04883363 -50.88925944 44.39382782 -72.08984375 66.88623047 Z " fill="#ffff" transform="translate(222.6875,-0.3984375)"/>
<path d="M0 0 C5.40302877 4.45451267 10.19241145 9.2318182 14.9375 14.375 C19.60258814 19.40659846 24.30938621 24.36475326 29.20385742 29.17480469 C31.01196541 31.01215895 32.70161823 32.91483495 34.375 34.875 C37.90236658 38.98220766 41.72842705 42.74384005 45.578125 46.546875 C48.2639636 49.26736958 50.77519363 52.09049348 53.234375 55.015625 C55.70877633 57.79658933 58.35314362 60.38271743 61 63 C63.52516805 60.50434749 66.04429373 58.00267549 68.5625 55.5 C69.26697266 54.80390625 69.97144531 54.1078125 70.69726562 53.390625 C74.79153498 49.31522325 78.68723943 45.14058638 82.45678711 40.76367188 C84.37502434 38.57140076 86.40969904 36.52790391 88.5 34.5 C91.28621141 31.7514401 93.95308392 28.97140209 96.5 26 C99.74751544 22.21123199 103.24674228 18.73410777 106.80078125 15.234375 C108.8616248 13.14058723 110.78349685 10.98604785 112.6875 8.75 C115.54090248 5.41658589 118.54337554 2.69785324 122 0 C122.61875 0.63615234 122.61875 0.63615234 123.25 1.28515625 C126.36013769 4.44388984 129.50903208 7.48891907 132.875 10.375 C136.76528038 13.72139652 140.34345718 17.32485451 143.9453125 20.9765625 C146.17004622 23.16745996 148.49221261 25.13938355 151 27 C149.37760438 30.92938593 146.68217542 33.75805675 143.8125 36.8125 C143.31782227 37.34584961 142.82314453 37.87919922 142.31347656 38.42871094 C139.15195337 41.821213 135.91187761 45.11962718 132.6015625 48.3671875 C130.86140423 50.14130008 129.24399786 51.98986551 127.625 53.875 C125.03365795 56.8846753 122.32745217 59.71088616 119.5 62.5 C116.0711721 65.88241399 112.87951482 69.38070442 109.74609375 73.03515625 C107.27396582 75.81699148 104.61569453 78.39375951 101.96484375 81.00390625 C100.07769256 82.92107177 98.31314625 84.89575322 96.5625 86.9375 C93.99334729 89.92801716 91.30682744 92.73116684 88.5 95.5 C85.09411808 98.85985649 81.92754949 102.33397356 78.81640625 105.96484375 C76.06360229 109.04916819 73.09862219 111.91043428 70.15625 114.8125 C67.26514131 117.74550881 64.62914291 120.83154573 62 124 C54.31326896 117.62164872 47.3757047 110.67976673 40.87890625 103.09765625 C38.67372704 100.635741 36.35113323 98.3227636 34 96 C31.06881809 93.10408042 28.23596826 90.19757429 25.5625 87.0625 C22.69827665 83.71074927 19.63666284 80.59443244 16.5 77.5 C12.75969662 73.81005412 9.2176065 70.02496302 5.80859375 66.02734375 C3.63041508 63.58571366 1.32751992 61.29951968 -1 59 C-3.93118191 56.10408042 -6.76403174 53.19757429 -9.4375 50.0625 C-12.3387188 46.66511077 -15.44689226 43.5109298 -18.625 40.375 C-22.31539884 36.72521077 -25.7993363 33.08360542 -29 29 C-27.49867699 25.34924186 -25.41104665 23.36723727 -22.4375 20.8125 C-18.96193494 17.76700486 -15.61440886 14.67074641 -12.375 11.375 C-8.42292839 7.36657087 -4.28086443 3.6510726 0 0 Z " fill="#fff" transform="translate(195,307)"/>
<path d="M0 0 C4.89872999 2.85759249 7.79346527 7.1303958 9.5625 12.4375 C10.22384489 19.75566066 10.30340673 26.48380318 5.5625 32.4375 C-0.31091297 37.77696633 -5.52093201 38.80560469 -13.359375 38.7109375 C-18.60956546 38.24455002 -22.43333677 36.64207956 -26 32.71875 C-30.78040344 26.30866357 -31.13555921 20.29565224 -30.4375 12.4375 C-28.90478311 6.78676061 -25.94904415 3.51969493 -21.12109375 0.34765625 C-14.98998289 -2.96684219 -6.30251123 -2.81448021 0 0 Z " fill="#fff" transform="translate(266.4375,242.5625)"/>
<path d="M0 0 C4.89872999 2.85759249 7.79346527 7.1303958 9.5625 12.4375 C10.22384489 19.75566066 10.30340673 26.48380318 5.5625 32.4375 C-0.31091297 37.77696633 -5.52093201 38.80560469 -13.359375 38.7109375 C-18.60956546 38.24455002 -22.43333677 36.64207956 -26 32.71875 C-30.78040344 26.30866357 -31.13555921 20.29565224 -30.4375 12.4375 C-28.90478311 6.78676061 -25.94904415 3.51969493 -21.12109375 0.34765625 C-14.98998289 -2.96684219 -6.30251123 -2.81448021 0 0 Z " fill="#fff" transform="translate(266.4375,162.5625)"/>
<path d="M0 0 C4.89872999 2.85759249 7.79346527 7.1303958 9.5625 12.4375 C10.22384489 19.75566066 10.30340673 26.48380318 5.5625 32.4375 C-0.31091297 37.77696633 -5.52093201 38.80560469 -13.359375 38.7109375 C-18.60956546 38.24455002 -22.43333677 36.64207956 -26 32.71875 C-30.78040344 26.30866357 -31.13555921 20.29565224 -30.4375 12.4375 C-28.90478311 6.78676061 -25.94904415 3.51969493 -21.12109375 0.34765625 C-14.98998289 -2.96684219 -6.30251123 -2.81448021 0 0 Z " fill="#fff" transform="translate(266.4375,82.5625)"/>
</svg>
